<?xml version="1.0" encoding="utf-8"?>
<!-- Generator: Adobe Illustrator 16.0.0, SVG Export Plug-In . SVG Version: 6.00 Build 0)  -->
<!DOCTYPE svg PUBLIC "-//W3C//DTD SVG 1.1//EN" "http://www.w3.org/Graphics/SVG/1.1/DTD/svg11.dtd">
<svg version="1.1" id="Layer_3" xmlns="http://www.w3.org/2000/svg" xmlns:xlink="http://www.w3.org/1999/xlink">
<path fill="#92278F" d="M239.608,79.944l-91.934-21.738l-39.969,7.5l1.25,35.381l-33.848,9.814l6.729,67.771L97.57,191.7
	l30.078-15.908l0.039-6.426l4.97,3.115l34.314-17.617c0,0,1.562-21.904,1.943-28.357l27.773,11.951l35.547-19.354L239.608,79.944z
	 M135.9,109.466l34.236-9.199l28.203,8.555l-2.93,25.965L135.9,109.466z M201.181,109.681l29.043,8.779l-31.611,16.316
	L201.181,109.681z M230.653,117.884l-29.414-8.691l1.719-15.176l34.404-11.826L230.653,117.884z M147.695,59.251l88.691,21.299
	l-34.805,10.859l-89.246-25.381L147.695,59.251z M109.024,102.649l0.85,24.658l-32.197-15.82L109.024,102.649z M82.804,178.097
	l-5.986-65.076l35.693,18.885l-2.314-64.217l89.832,26.289l-1.631,14.355l-28.281-8.525l-37.703,9.932l-0.44,26.307l-3.115-1.553
	l-35.234,11.416l2.452,43.096L82.804,178.097z M131.447,169.054l-35.772-23.115c6.963-2.295,31.29-10.215,33.184-10.85l3.106,1.504
	L131.447,169.054z M134.854,138.126l29.959,16.006l-30.476,15.342L134.854,138.126z M126.349,174.923l-27.842,14.561l-3.095-40.938
	l30.771,20.146L126.349,174.923z M166.815,129.114l-0.605,10.213c-0.566,9.609-0.752,12.871-0.82,14.15l-30.525-15.898l0.43-25.623
	l31.736,13.73C166.981,126.458,166.913,127.542,166.815,129.114z"/>
</svg>
